#N canvas 552 18 688 258 10;
#X floatatom 33 26 5 0 15 1 channel stress-loadchan stress-chan;
#X floatatom 43 45 5 0 127 1 note stress-loadnote stress-note;
#X floatatom 53 64 5 0 127 1 velocity stress-loadvelo stress-velo;
#X floatatom 63 83 5 0 0 1 milliseconds_per_tick stress-loadtick stress-tick
;
#X obj 385 67 * 3;
#X obj 415 67 * 2;
#X obj 445 67 * 2;
#X floatatom 385 94 5 0 0 0 THIRTYSECOND_NOTE - -;
#X obj 475 67 * 2;
#X obj 505 67 * 2;
#X floatatom 415 114 5 0 0 0 SIXTEENTH_NOTE - -;
#X floatatom 445 134 5 0 0 0 EIGHTH_NOTE - -;
#X floatatom 475 154 5 0 0 0 QUARTER_NOTE - -;
#X floatatom 505 174 5 0 0 0 HALF_NOTE - -;
#X obj 179 29 bng 40 250 50 0 stress-start empty START 5 15 0 10 -4034
-1 -1;
#X obj 230 29 bng 40 250 50 0 stress-stop empty STOP 8 15 0 10 -258113
-1 -1;
#X obj 385 42 r stress-tick;
#N canvas 70 27 517 649 stress-guts 0;
#X msg 282 111 stop;
#X obj 68 261 pack f f f;
#X obj 231 137 metro 20;
#X obj 174 402 noteout;
#X obj 130 307 list;
#X obj 161 307 list;
#X obj 178 169 t b b;
#X obj 83 163 f 1;
#X obj 109 163 f 50;
#X obj 141 163 f 70;
#X obj 33 297 print;
#X obj 170 337 pipe 1 60 70 20;
#X obj 197 261 pack f 0 f 20;
#X obj 174 368 pack f f f;
#X obj 154 110 t b f;
#X obj 56 111 t b f;
#X obj 56 84 r stress-chan;
#X obj 109 60 r stress-note;
#X obj 98 37 r stress-velo;
#X obj 326 111 r stress-tick;
#X obj 231 85 r stress-start;
#X obj 282 61 r stress-stop;
#X obj 231 163 s stress-displaybang;
#X obj 328 377 loadbang;
#X msg 328 403 1 60 127 20;
#X obj 328 428 unpack f f f f;
#X obj 328 484 s stress-loadchan;
#X obj 338 504 s stress-loadnote;
#X obj 348 524 s stress-loadvelo;
#X obj 358 544 s stress-loadtick;
#X connect 0 0 2 0;
#X connect 1 0 4 1;
#X connect 1 0 10 0;
#X connect 2 0 6 0;
#X connect 2 0 22 0;
#X connect 4 0 3 0;
#X connect 5 0 11 0;
#X connect 6 0 4 0;
#X connect 6 1 5 0;
#X connect 7 0 1 2;
#X connect 7 0 12 2;
#X connect 8 0 1 0;
#X connect 8 0 12 0;
#X connect 9 0 1 1;
#X connect 11 0 13 0;
#X connect 11 1 13 1;
#X connect 11 2 13 2;
#X connect 12 0 5 1;
#X connect 13 0 3 0;
#X connect 14 0 8 0;
#X connect 14 1 9 0;
#X connect 15 0 8 0;
#X connect 15 1 7 0;
#X connect 16 0 15 0;
#X connect 17 0 8 0;
#X connect 18 0 14 0;
#X connect 19 0 2 1;
#X connect 19 0 12 3;
#X connect 20 0 2 0;
#X connect 21 0 0 0;
#X connect 23 0 24 0;
#X connect 24 0 25 0;
#X connect 25 0 26 0;
#X connect 25 1 27 0;
#X connect 25 2 28 0;
#X connect 25 3 29 0;
#X restore 36 358 pd stress-guts;
#X obj 230 120 bng 40 50 10 0 empty stress-displaybang TICKS 5 15 0
10 -4032 -1 -1;
#X connect 4 0 5 0;
#X connect 4 0 7 0;
#X connect 5 0 6 0;
#X connect 5 0 10 0;
#X connect 6 0 8 0;
#X connect 6 0 11 0;
#X connect 8 0 9 0;
#X connect 8 0 12 0;
#X connect 9 0 13 0;
#X connect 16 0 4 0;
